# Blender 3.6.2
# www.blender.org
mtllib BasicTurretLv1FrontBarrel.mtl
o Cube.004
v -0.022745 2.160755 2.389052
v 0.028265 2.155817 2.389291
v 0.077314 2.141191 2.389997
v 0.122518 2.117440 2.391146
v 0.162140 2.085477 2.392690
v 0.194657 2.046530 2.394573
v 0.218819 2.002095 2.396720
v 0.233698 1.953881 2.399050
v 0.238722 1.903740 2.401474
v 0.233698 1.853599 2.403897
v 0.218819 1.805384 2.406227
v 0.194657 1.760950 2.408374
v 0.162140 1.722003 2.410257
v 0.122518 1.690040 2.411802
v 0.077314 1.666289 2.412950
v 0.028265 1.651663 2.413657
v -0.022745 1.646724 2.413896
v -0.073754 1.651663 2.413657
v -0.122803 1.666289 2.412950
v -0.168007 1.690040 2.411802
v -0.207629 1.722003 2.410257
v -0.240146 1.760950 2.408374
v -0.264308 1.805384 2.406227
v -0.279187 1.853599 2.403897
v -0.284211 1.903740 2.401474
v -0.279187 1.953881 2.399050
v -0.264308 2.002095 2.396720
v -0.240146 2.046530 2.394573
v -0.207629 2.085477 2.392690
v -0.168007 2.117440 2.391146
v -0.122803 2.141191 2.389997
v -0.073754 2.155817 2.389291
v -0.022745 2.099446 1.787974
v 0.028265 2.094507 1.788213
v 0.077314 2.079882 1.788920
v 0.122518 2.056131 1.790068
v 0.162140 2.024168 1.791612
v 0.194657 1.985221 1.793495
v 0.218819 1.940786 1.795642
v 0.233698 1.892572 1.797972
v 0.238722 1.842431 1.800395
v 0.233698 1.792289 1.802819
v 0.218819 1.744075 1.805149
v 0.194657 1.699641 1.807296
v 0.162140 1.660693 1.809179
v 0.122518 1.628730 1.810723
v 0.077314 1.604979 1.811871
v 0.028265 1.590354 1.812579
v -0.022745 1.585415 1.812818
v -0.073754 1.590354 1.812579
v -0.122803 1.604979 1.811871
v -0.168007 1.628730 1.810723
v -0.207629 1.660693 1.809179
v -0.240146 1.699641 1.807296
v -0.264308 1.744075 1.805149
v -0.279187 1.792289 1.802819
v -0.284211 1.842431 1.800395
v -0.279187 1.892572 1.797972
v -0.264308 1.940786 1.795642
v -0.240146 1.985221 1.793495
v -0.207629 2.024168 1.791612
v -0.168007 2.056131 1.790068
v -0.122803 2.079882 1.788920
v -0.073754 2.094507 1.788213
v -0.193831 1.904804 2.401422
v -0.190483 1.870601 2.403075
v -0.190483 1.939007 2.399769
v -0.164465 1.807401 2.406130
v -0.180567 1.837712 2.404665
v -0.180567 1.971896 2.398179
v -0.164836 2.001509 2.396749
v -0.164465 2.002207 2.396715
v -0.116390 1.759030 2.408468
v 0.014410 2.076756 2.393112
v -0.019584 2.080124 2.392949
v -0.086265 2.066779 2.393594
v -0.053578 2.076756 2.393112
v -0.142795 2.028774 2.395431
v -0.116390 2.050578 2.394377
v -0.142795 1.780833 2.407414
v -0.086265 1.742829 2.409250
v -0.019584 1.729483 2.409895
v 0.014410 1.732852 2.409733
v -0.053578 1.732852 2.409733
v 0.077223 2.050578 2.394377
v 0.047098 2.066779 2.393594
v 0.047098 1.742829 2.409250
v 0.077223 1.759030 2.408468
v 0.125298 2.002207 2.396715
v 0.103628 2.028774 2.395431
v 0.154664 1.904804 2.401422
v 0.151316 1.939007 2.399769
v 0.141400 1.837712 2.404665
v 0.151316 1.870600 2.403075
v 0.141400 1.971896 2.398179
v 0.103628 1.780833 2.407414
v 0.125298 1.807401 2.406130
v -0.022745 2.159120 2.385696
v 0.014050 2.155158 2.383531
v 0.061254 2.141544 2.380620
v 0.106982 2.118184 2.380051
v 0.147111 2.086413 2.380692
v 0.180024 2.047585 2.382005
v 0.204511 2.003234 2.383742
v 0.219674 1.955087 2.385743
v 0.224965 1.905003 2.387879
v 0.220210 1.854917 2.390031
v 0.205621 1.806757 2.392086
v 0.181797 1.762383 2.393931
v 0.149712 1.723507 2.395458
v 0.110705 1.691638 2.396542
v 0.066521 1.668025 2.397031
v 0.019705 1.653654 2.396689
v -0.022745 1.649113 2.395600
v -0.065194 1.653654 2.396689
v -0.112010 1.668025 2.397031
v -0.156194 1.691638 2.396542
v -0.195201 1.723507 2.395458
v -0.227287 1.762383 2.393931
v -0.251110 1.806757 2.392086
v -0.265699 1.854917 2.390031
v -0.270455 1.905003 2.387879
v -0.265163 1.955087 2.385743
v -0.250000 2.003234 2.383742
v -0.225513 2.047585 2.382005
v -0.192600 2.086413 2.380692
v -0.152472 2.118184 2.380051
v -0.106743 2.141544 2.380620
v -0.059539 2.155158 2.383531
v -0.022745 2.096909 1.805207
v 0.014504 2.092732 1.800271
v 0.059911 2.078794 1.796305
v 0.104061 2.055406 1.794994
v 0.143250 2.023672 1.794979
v 0.175558 1.984892 1.795728
v 0.199614 1.940593 1.796957
v 0.214445 1.892498 1.798477
v 0.219462 1.842470 1.800130
v 0.214472 1.792445 1.801764
v 0.199678 1.744359 1.803222
v 0.175684 1.700078 1.804323
v 0.143502 1.661333 1.804831
v 0.104621 1.629668 1.804353
v 0.061411 1.606411 1.802149
v 0.018747 1.592560 1.797597
v -0.022745 1.587952 1.795585
v -0.064236 1.592560 1.797597
v -0.106901 1.606411 1.802149
v -0.150110 1.629668 1.804353
v -0.188991 1.661333 1.804831
v -0.221173 1.700078 1.804323
v -0.245167 1.744359 1.803222
v -0.259961 1.792445 1.801764
v -0.264952 1.842470 1.800130
v -0.259934 1.892498 1.798477
v -0.245103 1.940593 1.796957
v -0.221047 1.984892 1.795728
v -0.188739 2.023672 1.794979
v -0.149550 2.055406 1.794994
v -0.105401 2.078794 1.796305
v -0.059993 2.092732 1.800271
v -0.193831 1.906623 2.381999
v -0.190483 1.872420 2.383652
v -0.190483 1.940827 2.380346
v -0.164465 1.809220 2.386706
v -0.180567 1.839531 2.385242
v -0.180567 1.973716 2.378756
v -0.164836 2.003328 2.377325
v -0.164465 2.004026 2.377291
v -0.116390 1.760850 2.389044
v 0.014410 2.078575 2.373688
v -0.019584 2.081944 2.373526
v -0.086265 2.068599 2.374171
v -0.053578 2.078575 2.373688
v -0.142795 2.030594 2.376007
v -0.116390 2.052397 2.374954
v -0.142795 1.782653 2.387990
v -0.086265 1.744648 2.389827
v -0.019584 1.731302 2.390472
v 0.014410 1.734671 2.390310
v -0.053578 1.734671 2.390310
v 0.077223 2.052397 2.374954
v 0.047098 2.068599 2.374171
v 0.047098 1.744648 2.389827
v 0.077223 1.760850 2.389044
v 0.125298 2.004026 2.377291
v 0.103628 2.030594 2.376007
v 0.154664 1.906623 2.381999
v 0.151316 1.940827 2.380346
v 0.141400 1.839531 2.385242
v 0.151316 1.872420 2.383652
v 0.141400 1.973716 2.378756
v 0.103628 1.782653 2.387990
v 0.125298 1.809220 2.386706
vn 0.0963 0.9902 -0.1010
vn 0.2857 0.9534 -0.0972
vn 0.4650 0.8807 -0.0898
vn 0.6278 0.7744 -0.0790
vn 0.7676 0.6377 -0.0650
vn 0.8785 0.4753 -0.0485
vn 0.9555 0.2934 -0.0299
vn 0.9950 0.0992 -0.0101
vn 0.9950 -0.0992 0.0101
vn 0.9555 -0.2934 0.0299
vn 0.8785 -0.4753 0.0485
vn 0.7676 -0.6377 0.0650
vn 0.6278 -0.7744 0.0790
vn 0.4650 -0.8807 0.0898
vn 0.2857 -0.9534 0.0972
vn 0.0963 -0.9902 0.1010
vn -0.0963 -0.9902 0.1010
vn -0.2857 -0.9534 0.0972
vn -0.4650 -0.8807 0.0898
vn -0.6278 -0.7744 0.0790
vn -0.7676 -0.6377 0.0650
vn -0.8785 -0.4753 0.0485
vn -0.9555 -0.2934 0.0299
vn -0.9950 -0.0992 0.0101
vn -0.9950 0.0992 -0.0101
vn -0.9555 0.2934 -0.0299
vn -0.8785 0.4753 -0.0485
vn -0.7676 0.6377 -0.0650
vn -0.6278 0.7744 -0.0790
vn -0.4650 0.8807 -0.0898
vn -0.0000 0.0483 0.9988
vn -0.2857 0.9534 -0.0972
vn -0.0963 0.9902 -0.1010
vn -0.0986 -0.9895 0.1059
vn -0.2766 -0.9555 0.1026
vn -0.4577 -0.8838 0.0965
vn -0.6230 -0.7773 0.0869
vn -0.7644 -0.6404 0.0740
vn -0.8764 -0.4780 0.0581
vn -0.9544 -0.2960 0.0398
vn -0.9946 -0.1017 0.0199
vn -0.9953 0.0969 -0.0008
vn -0.9564 0.2912 -0.0214
vn -0.8800 0.4733 -0.0411
vn -0.7697 0.6357 -0.0590
vn -0.6307 0.7724 -0.0745
vn -0.4695 0.8786 -0.0870
vn -0.2946 0.9508 -0.0962
vn -0.1041 0.9894 -0.1008
vn 0.1041 0.9894 -0.1008
vn 0.2946 0.9508 -0.0962
vn 0.4695 0.8786 -0.0870
vn 0.6307 0.7724 -0.0745
vn 0.7697 0.6357 -0.0590
vn 0.8800 0.4733 -0.0411
vn 0.9564 0.2912 -0.0214
vn 0.9953 0.0969 -0.0008
vn 0.9946 -0.1017 0.0199
vn 0.9544 -0.2960 0.0398
vn 0.8764 -0.4780 0.0581
vn 0.7644 -0.6404 0.0740
vn 0.6230 -0.7773 0.0869
vn 0.4577 -0.8838 0.0965
vn 0.0236 0.0343 -0.9991
vn -0.0219 -0.0705 -0.9973
vn 0.2766 -0.9555 0.1026
vn 0.0986 -0.9895 0.1059
vn -0.1110 -0.9744 -0.1956
vn -0.2606 -0.4910 -0.8313
vn -0.1410 -0.1507 -0.9785
vn -0.0468 -0.0543 -0.9974
vn 0.0340 -0.0438 -0.9985
vn 0.1249 -0.1039 -0.9867
vn 0.2529 -0.3273 -0.9104
vn 0.2851 -0.8615 -0.4202
vn -0.1044 -0.9790 -0.1750
vn -0.3170 -0.5793 -0.7510
vn -0.1828 -0.1820 -0.9662
vn -0.0766 -0.0627 -0.9951
vn 0.0062 -0.0413 -0.9991
vn 0.0907 -0.0870 -0.9921
vn 0.2003 -0.2704 -0.9417
vn 0.2611 -0.8024 -0.5367
vn 0.9952 0.0979 0.0092
vn 0.9952 -0.0979 -0.0092
vn 0.9567 -0.2898 -0.0271
vn 0.8814 -0.4704 -0.0441
vn 0.0977 -0.9909 -0.0928
vn 0.6333 0.7705 0.0722
vn 0.4704 0.8786 0.0823
vn 0.2896 0.9530 0.0893
vn -0.4704 -0.8786 -0.0823
vn -0.2896 0.9530 0.0893
vn -0.4704 0.8786 0.0823
vn -0.6334 -0.7705 -0.0722
vn -0.9952 -0.0979 -0.0092
vn -0.9952 0.0979 0.0092
vn -0.8814 -0.4704 -0.0441
vn 0.9567 0.2898 0.0271
vn -0.8814 0.4704 0.0441
vn -0.7722 -0.6327 -0.0593
vn 0.1110 -0.9744 -0.1956
vn -0.9567 0.2897 0.0271
vn 0.6333 -0.7705 -0.0722
vn -0.2611 -0.8023 -0.5367
vn -0.2003 -0.2704 -0.9417
vn -0.0907 -0.0870 -0.9921
vn -0.0062 -0.0413 -0.9991
vn 0.0766 -0.0627 -0.9951
vn 0.1828 -0.1820 -0.9662
vn 0.3170 -0.5793 -0.7510
vn 0.1044 -0.9790 -0.1750
vn -0.2851 -0.8615 -0.4202
vn -0.2529 -0.3273 -0.9104
vn -0.1249 -0.1039 -0.9867
vn -0.0340 -0.0438 -0.9985
vn 0.0468 -0.0543 -0.9974
vn 0.1410 -0.1507 -0.9785
vn 0.2606 -0.4910 -0.8313
vn 0.8814 0.4704 0.0441
vn -0.0977 -0.9909 -0.0928
vn 0.2895 -0.9530 -0.0893
vn 0.7722 -0.6327 -0.0593
vn 0.4704 -0.8786 -0.0823
vn 0.7722 0.6327 0.0593
vn -0.0977 0.9909 0.0928
vn 0.0977 0.9909 0.0928
vn -0.2895 -0.9530 -0.0893
vn -0.9567 -0.2898 -0.0271
vn -0.6333 0.7705 0.0722
vn -0.7722 0.6327 0.0593
vt 1.000000 0.870823
vt 1.000000 1.000000
vt 0.968750 1.000000
vt 0.968750 0.870823
vt 0.937500 1.000000
vt 0.937500 0.870823
vt 0.906250 1.000000
vt 0.906250 0.870823
vt 0.875000 1.000000
vt 0.875000 0.870823
vt 0.843750 1.000000
vt 0.843750 0.870823
vt 0.812500 1.000000
vt 0.812500 0.870823
vt 0.781250 1.000000
vt 0.781250 0.870823
vt 0.750000 1.000000
vt 0.750000 0.870823
vt 0.718750 1.000000
vt 0.718750 0.870823
vt 0.687500 1.000000
vt 0.687500 0.870823
vt 0.656250 1.000000
vt 0.656250 0.870823
vt 0.625000 1.000000
vt 0.625000 0.870823
vt 0.593750 1.000000
vt 0.593750 0.870823
vt 0.562500 1.000000
vt 0.562500 0.870823
vt 0.531250 1.000000
vt 0.531250 0.870823
vt 0.500000 1.000000
vt 0.500000 0.870823
vt 0.468750 1.000000
vt 0.468750 0.870823
vt 0.437500 1.000000
vt 0.437500 0.870823
vt 0.406250 1.000000
vt 0.406250 0.870823
vt 0.375000 1.000000
vt 0.375000 0.870823
vt 0.343750 1.000000
vt 0.343750 0.870823
vt 0.312500 1.000000
vt 0.312500 0.870823
vt 0.281250 1.000000
vt 0.281250 0.870823
vt 0.250000 1.000000
vt 0.250000 0.870823
vt 0.218750 1.000000
vt 0.218750 0.870823
vt 0.187500 1.000000
vt 0.187500 0.870823
vt 0.156250 1.000000
vt 0.156250 0.870823
vt 0.125000 1.000000
vt 0.125000 0.870823
vt 0.093750 1.000000
vt 0.093750 0.870823
vt 0.062500 1.000000
vt 0.062500 0.870823
vt 0.385888 0.160039
vt 0.471731 0.158156
vt 0.485388 0.203178
vt 0.490000 0.250000
vt 0.485388 0.296822
vt 0.471731 0.341844
vt 0.449553 0.383337
vt 0.419706 0.419706
vt 0.383337 0.449553
vt 0.341844 0.471731
vt 0.296822 0.485388
vt 0.250000 0.490000
vt 0.203178 0.485388
vt 0.158156 0.471731
vt 0.116663 0.449553
vt 0.080294 0.419706
vt 0.050447 0.383337
vt 0.028269 0.341844
vt 0.119574 0.341296
vt 0.119915 0.341948
vt 0.139805 0.366757
vt 0.164043 0.387116
vt 0.191694 0.402245
vt 0.221698 0.411562
vt 0.252901 0.414707
vt 0.284104 0.411562
vt 0.314108 0.402245
vt 0.341760 0.387116
vt 0.365997 0.366757
vt 0.385888 0.341948
vt 0.400668 0.313644
vt 0.409770 0.282932
vt 0.412843 0.250993
vt 0.409770 0.219054
vt 0.400668 0.188343
vt 0.158156 0.028269
vt 0.203178 0.014612
vt 0.250000 0.010000
vt 0.296822 0.014612
vt 0.341844 0.028269
vt 0.383337 0.050447
vt 0.419706 0.080294
vt 0.449553 0.116663
vt 0.365997 0.135231
vt 0.341760 0.114871
vt 0.314108 0.099742
vt 0.284104 0.090426
vt 0.252901 0.087280
vt 0.221698 0.090426
vt 0.191694 0.099742
vt 0.164043 0.114871
vt 0.139806 0.135231
vt 0.119915 0.160039
vt 0.105134 0.188343
vt 0.096033 0.219054
vt 0.092960 0.250993
vt 0.096033 0.282932
vt 0.105134 0.313644
vt 0.014612 0.296822
vt 0.010000 0.250000
vt 0.014612 0.203178
vt 0.028269 0.158156
vt 0.050447 0.116663
vt 0.080294 0.080294
vt 0.116663 0.050447
vt 0.031250 1.000000
vt 0.031250 0.870823
vt 0.000000 1.000000
vt 0.000000 0.870823
s 0
f 33/1/1 1/2/1 2/3/1 34/4/1
f 34/4/2 2/3/2 3/5/2 35/6/2
f 35/6/3 3/5/3 4/7/3 36/8/3
f 36/8/4 4/7/4 5/9/4 37/10/4
f 37/10/5 5/9/5 6/11/5 38/12/5
f 38/12/6 6/11/6 7/13/6 39/14/6
f 39/14/7 7/13/7 8/15/7 40/16/7
f 40/16/8 8/15/8 9/17/8 41/18/8
f 41/18/9 9/17/9 10/19/9 42/20/9
f 42/20/10 10/19/10 11/21/10 43/22/10
f 43/22/11 11/21/11 12/23/11 44/24/11
f 44/24/12 12/23/12 13/25/12 45/26/12
f 45/26/13 13/25/13 14/27/13 46/28/13
f 46/28/14 14/27/14 15/29/14 47/30/14
f 47/30/15 15/29/15 16/31/15 48/32/15
f 48/32/16 16/31/16 17/33/16 49/34/16
f 49/34/17 17/33/17 18/35/17 50/36/17
f 50/36/18 18/35/18 19/37/18 51/38/18
f 51/38/19 19/37/19 20/39/19 52/40/19
f 52/40/20 20/39/20 21/41/20 53/42/20
f 53/42/21 21/41/21 22/43/21 54/44/21
f 54/44/22 22/43/22 23/45/22 55/46/22
f 55/46/23 23/45/23 24/47/23 56/48/23
f 56/48/24 24/47/24 25/49/24 57/50/24
f 57/50/25 25/49/25 26/51/25 58/52/25
f 58/52/26 26/51/26 27/53/26 59/54/26
f 59/54/27 27/53/27 28/55/27 60/56/27
f 60/56/28 28/55/28 29/57/28 61/58/28
f 61/58/29 29/57/29 30/59/29 62/60/29
f 62/60/30 30/59/30 31/61/30 63/62/30
f 97/63/31 11/64/31 10/65/31 9/66/31 8/67/31 7/68/31 6/69/31 5/70/31 4/71/31 3/72/31 2/73/31 1/74/31 32/75/31 31/76/31 30/77/31 29/78/31 28/79/31 27/80/31 71/81/31 72/82/31 78/83/31 79/84/31 76/85/31 77/86/31 75/87/31 74/88/31 86/89/31 85/90/31 90/91/31 89/92/31 95/93/31 92/94/31 91/95/31 94/96/31 93/97/31
f 19/98/31 18/99/31 17/100/31 16/101/31 15/102/31 14/103/31 13/104/31 12/105/31 11/64/31 97/63/31 96/106/31 88/107/31 87/108/31 83/109/31 82/110/31 84/111/31 81/112/31 73/113/31 80/114/31 68/115/31 69/116/31 66/117/31 65/118/31 67/119/31 70/120/31 71/81/31 27/80/31 26/121/31 25/122/31 24/123/31 23/124/31 22/125/31 21/126/31 20/127/31
f 63/62/32 31/61/32 32/128/32 64/129/32
f 64/129/33 32/128/33 1/130/33 33/131/33
f 130/1/34 131/4/34 99/3/34 98/2/34
f 131/4/35 132/6/35 100/5/35 99/3/35
f 132/6/36 133/8/36 101/7/36 100/5/36
f 133/8/37 134/10/37 102/9/37 101/7/37
f 134/10/38 135/12/38 103/11/38 102/9/38
f 135/12/39 136/14/39 104/13/39 103/11/39
f 136/14/40 137/16/40 105/15/40 104/13/40
f 137/16/41 138/18/41 106/17/41 105/15/41
f 138/18/42 139/20/42 107/19/42 106/17/42
f 139/20/43 140/22/43 108/21/43 107/19/43
f 140/22/44 141/24/44 109/23/44 108/21/44
f 141/24/45 142/26/45 110/25/45 109/23/45
f 142/26/46 143/28/46 111/27/46 110/25/46
f 143/28/47 144/30/47 112/29/47 111/27/47
f 144/30/48 145/32/48 113/31/48 112/29/48
f 145/32/49 146/34/49 114/33/49 113/31/49
f 146/34/50 147/36/50 115/35/50 114/33/50
f 147/36/51 148/38/51 116/37/51 115/35/51
f 148/38/52 149/40/52 117/39/52 116/37/52
f 149/40/53 150/42/53 118/41/53 117/39/53
f 150/42/54 151/44/54 119/43/54 118/41/54
f 151/44/55 152/46/55 120/45/55 119/43/55
f 152/46/56 153/48/56 121/47/56 120/45/56
f 153/48/57 154/50/57 122/49/57 121/47/57
f 154/50/58 155/52/58 123/51/58 122/49/58
f 155/52/59 156/54/59 124/53/59 123/51/59
f 156/54/60 157/56/60 125/55/60 124/53/60
f 157/56/61 158/58/61 126/57/61 125/55/61
f 158/58/62 159/60/62 127/59/62 126/57/62
f 159/60/63 160/62/63 128/61/63 127/59/63
f 194/63/64 190/97/64 191/96/64 188/95/64 189/94/64 192/93/64 186/92/64 187/91/64 182/90/64 183/89/64 171/88/64 172/87/64 174/86/64 173/85/64 176/84/64 175/83/64 169/82/64 168/81/64 124/80/64 125/79/64 126/78/64 127/77/64 128/76/64 129/75/64 98/74/64 99/73/64 100/72/64 101/71/64 102/70/64 103/69/64 104/68/64 105/67/64 106/66/64 107/65/64 108/64/64
f 116/98/65 117/127/65 118/126/65 119/125/65 120/124/65 121/123/65 122/122/65 123/121/65 124/80/65 168/81/65 167/120/65 164/119/65 162/118/65 163/117/65 166/116/65 165/115/65 177/114/65 170/113/65 178/112/65 181/111/65 179/110/65 180/109/65 184/108/65 185/107/65 193/106/65 194/63/65 108/64/65 109/105/65 110/104/65 111/103/65 112/102/65 113/101/65 114/100/65 115/99/65
f 160/62/66 161/129/66 129/128/66 128/61/66
f 161/129/67 130/131/67 98/130/67 129/128/67
f 33/1/68 34/4/68 131/4/68 130/1/68
f 35/6/69 36/8/69 133/8/69 132/6/69
f 37/10/70 38/12/70 135/12/70 134/10/70
f 39/14/71 40/16/71 137/16/71 136/14/71
f 41/18/72 42/20/72 139/20/72 138/18/72
f 43/22/73 44/24/73 141/24/73 140/22/73
f 45/26/74 46/28/74 143/28/74 142/26/74
f 47/30/75 48/32/75 145/32/75 144/30/75
f 49/34/76 50/36/76 147/36/76 146/34/76
f 51/38/77 52/40/77 149/40/77 148/38/77
f 53/42/78 54/44/78 151/44/78 150/42/78
f 55/46/79 56/48/79 153/48/79 152/46/79
f 57/50/80 58/52/80 155/52/80 154/50/80
f 59/54/81 60/56/81 157/56/81 156/54/81
f 61/58/82 62/60/82 159/60/82 158/58/82
f 63/62/83 64/129/83 161/129/83 160/62/83
f 65/118/84 66/117/84 163/117/84 162/118/84
f 67/119/85 65/118/85 162/118/85 164/119/85
f 70/120/86 67/119/86 164/119/86 167/120/86
f 72/82/87 71/81/87 168/81/87 169/82/87
f 75/87/88 77/86/88 174/86/88 172/87/88
f 80/114/89 73/113/89 170/113/89 177/114/89
f 73/113/90 81/112/90 178/112/90 170/113/90
f 81/112/91 84/111/91 181/111/91 178/112/91
f 85/90/92 86/89/92 183/89/92 182/90/92
f 83/109/93 87/108/93 184/108/93 180/109/93
f 87/108/94 88/107/94 185/107/94 184/108/94
f 90/91/95 85/90/95 182/90/95 187/91/95
f 91/95/96 92/94/96 189/94/96 188/95/96
f 94/96/97 91/95/97 188/95/97 191/96/97
f 95/93/98 89/92/98 186/92/98 192/93/98
f 66/117/99 69/116/99 166/116/99 163/117/99
f 97/63/100 93/97/100 190/97/100 194/63/100
f 89/92/101 90/91/101 187/91/101 186/92/101
f 64/129/102 33/131/102 130/131/102 161/129/102
f 93/97/103 94/96/103 191/96/103 190/97/103
f 79/84/104 78/83/104 175/83/104 176/84/104
f 34/4/105 35/6/105 132/6/105 131/4/105
f 36/8/106 37/10/106 134/10/106 133/8/106
f 38/12/107 39/14/107 136/14/107 135/12/107
f 40/16/108 41/18/108 138/18/108 137/16/108
f 42/20/109 43/22/109 140/22/109 139/20/109
f 44/24/110 45/26/110 142/26/110 141/24/110
f 46/28/111 47/30/111 144/30/111 143/28/111
f 48/32/112 49/34/112 146/34/112 145/32/112
f 50/36/113 51/38/113 148/38/113 147/36/113
f 52/40/114 53/42/114 150/42/114 149/40/114
f 54/44/115 55/46/115 152/46/115 151/44/115
f 56/48/116 57/50/116 154/50/116 153/48/116
f 58/52/117 59/54/117 156/54/117 155/52/117
f 60/56/118 61/58/118 158/58/118 157/56/118
f 62/60/119 63/62/119 160/62/119 159/60/119
f 69/116/120 68/115/120 165/115/120 166/116/120
f 71/81/87 70/120/87 167/120/87 168/81/87
f 74/88/121 75/87/121 172/87/121 171/88/121
f 77/86/122 76/85/122 173/85/122 174/86/122
f 78/83/123 72/82/123 169/82/123 175/83/123
f 76/85/124 79/84/124 176/84/124 173/85/124
f 68/115/125 80/114/125 177/114/125 165/115/125
f 82/110/126 83/109/126 180/109/126 179/110/126
f 84/111/127 82/110/127 179/110/127 181/111/127
f 86/89/128 74/88/128 171/88/128 183/89/128
f 92/94/129 95/93/129 192/93/129 189/94/129
f 88/107/130 96/106/130 193/106/130 185/107/130
f 96/106/131 97/63/131 194/63/131 193/106/131
