# Blender 3.6.2
# www.blender.org
mtllib BasicTurretLv3Head.mtl
o Cube.001
v 0.808964 1.218009 -1.021914
v -0.845006 1.218009 -1.025421
v -0.988048 1.301523 1.430672
v -0.663225 2.422636 0.949108
v -0.654628 2.261508 -0.715003
v 0.880436 1.301523 1.433938
v 0.566000 2.260736 -0.713757
v 0.558593 2.422732 0.950390
v -0.845006 2.231039 -1.025421
v 0.808964 2.231039 -1.021914
v -0.988048 2.378780 1.259469
v 0.880436 2.378780 1.262735
v -0.845006 2.231039 -1.025421
v 0.808964 2.231039 -1.021914
v -1.096287 2.452766 1.257714
v 0.988676 2.452766 1.261358
v -1.171365 1.614844 0.921531
v -1.171371 2.045458 0.890525
v 1.047192 2.101603 0.968166
v 1.047196 1.646433 0.987835
v -0.988417 1.319415 1.641925
v -0.988417 2.396672 1.470721
v 0.880067 2.396672 1.473987
v 0.880067 1.319415 1.645191
v -0.022745 1.884037 0.112534
v 0.028265 1.879142 0.113216
v 0.077314 1.864648 0.115238
v 0.122518 1.841110 0.118520
v 0.162140 1.809433 0.122938
v 0.194657 1.770836 0.128322
v 0.218819 1.726799 0.134463
v 0.233698 1.679018 0.141127
v 0.238722 1.629326 0.148058
v 0.233698 1.579635 0.154989
v 0.218819 1.531853 0.161653
v 0.194657 1.487817 0.167794
v 0.162140 1.449219 0.173178
v 0.122518 1.417542 0.177596
v 0.077314 1.394004 0.180879
v 0.028265 1.379510 0.182900
v -0.022745 1.374616 0.183583
v -0.073754 1.379510 0.182900
v -0.122803 1.394004 0.180879
v -0.168008 1.417542 0.177596
v -0.207629 1.449219 0.173178
v -0.240146 1.487817 0.167794
v -0.264308 1.531853 0.161653
v -0.279187 1.579635 0.154989
v -0.284211 1.629326 0.148058
v -0.279187 1.679018 0.141127
v -0.264308 1.726799 0.134463
v -0.240146 1.770836 0.128322
v -0.207629 1.809433 0.122938
v -0.168008 1.841110 0.118520
v -0.122803 1.864648 0.115238
v -0.073754 1.879142 0.113216
v -1.162038 1.546181 -0.263262
v -0.845006 1.218009 -1.025421
v -1.067390 1.218009 -0.790146
v -1.014876 1.218009 -0.915143
v -0.936785 1.218009 -0.997761
v 0.808964 1.218009 -1.021914
v 1.055288 1.574184 -0.137613
v 0.881497 1.218009 -0.990797
v 0.942742 1.218009 -0.905248
v 0.983376 1.218009 -0.778293
v -0.845006 2.231039 -1.025421
v -1.162176 1.973503 -0.263262
v -0.936796 2.233906 -0.997761
v -1.014918 2.242069 -0.915143
v -1.067477 2.254288 -0.790146
v 1.055168 1.999853 -0.137614
v 0.808964 2.231039 -1.021914
v 0.983300 2.254378 -0.778293
v 0.942706 2.242113 -0.905249
v 0.881487 2.233917 -0.990797
v -1.096298 1.218548 1.438418
v -1.059527 1.264549 1.642829
v -1.095447 1.223128 1.483997
v -1.092777 1.228914 1.527267
v -1.088421 1.235617 1.566058
v -1.082599 1.242901 1.598425
v -1.075601 1.250401 1.622744
v -1.067780 1.257739 1.637797
v -1.056964 2.443527 1.469611
v -1.096298 2.453306 1.264084
v -1.065787 2.449129 1.464331
v -1.074150 2.453580 1.449041
v -1.081634 2.456657 1.424510
v -1.087862 2.458206 1.391967
v -1.092523 2.458148 1.353043
v -1.095383 2.456487 1.309691
v 0.988664 2.453306 1.267728
v 0.948614 2.443527 1.473116
v 0.987589 2.456487 1.313332
v 0.984578 2.458148 1.356674
v 0.979782 2.458206 1.395581
v 0.973440 2.456657 1.428102
v 0.965871 2.453580 1.452608
v 0.957455 2.449129 1.467867
v 0.951176 1.264549 1.646344
v 0.988664 1.218548 1.442062
v 0.959448 1.257739 1.641341
v 0.967322 1.250401 1.626315
v 0.974405 1.242901 1.602020
v 0.980340 1.235618 1.569674
v 0.984832 1.228914 1.530898
v 0.987654 1.223128 1.487638
v -0.663184 2.532490 0.938443
v -0.452935 2.542049 0.785727
v -0.635012 2.542600 0.917126
v -0.558056 2.546100 0.861228
v -0.445893 2.409935 -0.577199
v -0.654587 2.371361 -0.725668
v -0.550237 2.399478 -0.652291
v -0.626624 2.385359 -0.706634
v 0.566041 2.370588 -0.724422
v 0.355920 2.409469 -0.576754
v 0.537894 2.384627 -0.705495
v 0.460984 2.398859 -0.651445
v 0.349851 2.542069 0.786942
v 0.558635 2.532584 0.939725
v 0.454246 2.546157 0.862476
v 0.530666 2.542685 0.918398
v 0.988676 2.452766 1.261358
v 0.988676 1.218009 1.435693
v 0.997090 2.268847 -0.629259
v 0.997213 1.218009 -0.629258
v -1.096287 1.218009 1.432048
v -1.096287 2.452766 1.257714
v -1.086331 1.218009 -0.641799
v -1.086474 2.268700 -0.641800
v -1.096287 1.218009 1.432048
v -1.096287 2.452766 1.257714
v -1.086331 1.218009 -0.641799
v -1.086474 2.268700 -0.641800
v -1.240614 1.655032 0.813332
v -1.177641 1.614841 0.921481
v -1.236297 1.617181 0.882232
v -1.222622 1.615944 0.902724
v -1.202025 1.615122 0.916506
v -1.177646 2.045455 0.890476
v -1.240615 1.991074 0.784214
v -1.202030 2.044571 0.885585
v -1.222626 2.042078 0.872042
v -1.236298 2.038353 0.851908
v -1.168314 1.546178 -0.263311
v -1.232980 1.598819 -0.156645
v -1.192773 1.547012 -0.258743
v -1.213583 1.549409 -0.245347
v -1.227577 1.553003 -0.225164
v -1.233115 1.932398 -0.156646
v -1.168452 1.973500 -0.263312
v -1.227716 1.971182 -0.225165
v -1.213722 1.972392 -0.245348
v -1.192911 1.973206 -0.258744
v 1.117692 2.031332 0.820414
v 1.054947 2.101605 0.968221
v 1.108572 2.094659 0.938683
v 1.085840 2.099749 0.960425
v 1.054951 1.646435 0.987891
v 1.117695 1.696323 0.838216
v 1.085844 1.646917 0.979993
v 1.108575 1.648213 0.957975
v 1.062923 1.999856 -0.137558
v 1.123519 1.957002 0.012624
v 1.093699 1.999483 -0.129238
v 1.116113 1.998444 -0.106952
v 1.123629 1.643324 0.012624
v 1.063043 1.574187 -0.137558
v 1.116231 1.579850 -0.106952
v 1.093819 1.575709 -0.129238
v 1.117054 1.649977 0.927737
v 1.117051 2.087700 0.908821
v 1.124158 1.997020 -0.076671
v 1.124275 1.585499 -0.076671
v -1.240966 2.033965 0.828247
v -1.240967 1.618646 0.858151
v -1.232625 1.557249 -0.201266
v -1.232764 1.969759 -0.201267
v -0.988482 1.322605 1.678881
v -0.988482 2.399861 1.507677
v 0.880003 2.399861 1.510943
v 0.880003 1.322605 1.682147
vn 0.0072 -0.0000 -1.0000
vn -0.0017 0.1570 0.9876
vn 0.0021 -0.0000 -1.0000
vn 0.0079 -0.0000 -1.0000
vn -0.0000 1.0000 -0.0000
vn 0.0007 0.9953 -0.0966
vn 0.0001 0.9953 -0.0967
vn -1.0000 -0.0001 -0.0052
vn 1.0000 0.0001 0.0044
vn -1.0000 -0.0003 -0.0017
vn 0.0001 0.9964 -0.0844
vn 1.0000 0.0003 0.0017
vn -0.0001 -0.9964 0.0844
vn 1.0000 0.0002 0.0017
vn -0.0002 -0.9963 0.0860
vn -0.0000 -0.1381 -0.9904
vn 0.0010 -0.0966 -0.9953
vn -0.9919 -0.0001 -0.1268
vn -0.9219 -0.0001 -0.3875
vn -0.7267 -0.0000 -0.6870
vn -0.2885 -0.0000 -0.9575
vn 0.9957 0.0001 -0.0923
vn 0.9524 0.0001 -0.3047
vn 0.8132 -0.0000 -0.5820
vn 0.3943 -0.0000 -0.9190
vn -0.0000 -1.0000 -0.0000
vn -0.5193 0.1246 0.8454
vn -0.8829 0.0686 0.4644
vn -0.9590 0.0413 0.2805
vn -0.9833 0.0264 0.1802
vn -0.9934 0.0165 0.1138
vn -0.9980 0.0090 0.0629
vn -0.9998 0.0027 0.0191
vn 0.5164 0.1249 0.8472
vn 0.8813 0.0690 0.4675
vn 0.9580 0.0418 0.2838
vn 0.9826 0.0268 0.1836
vn 0.9930 0.0170 0.1172
vn 0.9977 0.0095 0.0664
vn 0.9997 0.0032 0.0226
vn -0.0013 0.6848 0.7287
vn -0.0005 0.9601 0.2798
vn -0.0002 0.9922 0.1245
vn -0.0001 0.9989 0.0475
vn -0.0000 1.0000 -0.0015
vn 0.0001 0.9993 -0.0383
vn 0.0001 0.9976 -0.0696
vn -0.0002 -0.9950 0.1000
vn -0.0002 -0.9912 0.1326
vn -0.0003 -0.9854 0.1703
vn -0.0004 -0.9756 0.2196
vn -0.0005 -0.9556 0.2948
vn -0.0008 -0.8987 0.4385
vn -0.0014 -0.5931 0.8051
vn -1.0000 -0.0002 -0.0017
vn -0.0011 0.0966 0.9953
vn -0.3961 0.9137 -0.0905
vn -0.1146 0.9887 -0.0964
vn -0.0306 0.9949 -0.0966
vn 0.3968 0.9138 -0.0872
vn 0.1153 0.9887 -0.0957
vn 0.0314 0.9948 -0.0966
vn -0.0005 0.9036 0.4283
vn -0.0001 0.9981 0.0622
vn -0.0000 0.9986 -0.0538
vn 0.0011 0.8044 -0.5941
vn 0.0008 0.9675 -0.2530
vn 0.0007 0.9903 -0.1393
vn 0.0004 0.9953 -0.0966
vn 0.9873 0.0181 0.1578
vn 0.9931 0.0002 -0.1173
vn 0.9890 -0.1474 0.0085
vn 0.9834 0.1811 -0.0119
vn 0.0004 0.9958 -0.0916
vn 1.0000 0.0004 0.0072
vn -0.0002 -0.9979 0.0641
vn -0.9855 0.0208 0.1684
vn -0.9806 -0.0002 -0.1961
vn -0.9790 -0.2039 -0.0015
vn -0.9775 0.2094 -0.0236
vn -0.0000 -0.9983 0.0579
vn -0.0000 0.9981 -0.0622
vn -1.0000 -0.0005 -0.0079
vn -0.1986 0.0704 0.9775
vn -0.5535 0.0598 0.8307
vn -0.8300 0.0400 0.5563
vn -0.9815 0.0138 0.1911
vn -0.9784 -0.0003 -0.2066
vn -0.8218 -0.0003 -0.5698
vn -0.5413 -0.0002 -0.8409
vn -0.1836 -0.0001 -0.9830
vn -0.5067 -0.8609 0.0459
vn -0.1724 -0.9835 0.0556
vn -0.0779 -0.9953 0.0571
vn -0.0232 -0.9981 0.0577
vn -0.0236 0.9978 -0.0624
vn -0.0792 0.9949 -0.0627
vn -0.1754 0.9825 -0.0627
vn -0.5135 0.8562 -0.0575
vn -0.0079 0.0718 0.9974
vn 0.2468 0.0418 0.9682
vn 0.6945 0.0311 0.7188
vn 0.9626 0.0117 0.2706
vn 0.9665 0.0003 -0.2568
vn 0.7051 0.0002 -0.7091
vn 0.2610 0.0001 -0.9653
vn 0.4085 -0.9107 0.0614
vn 0.1189 -0.9908 0.0645
vn 0.0320 -0.9974 0.0643
vn 0.0367 0.9951 -0.0913
vn 0.1350 0.9868 -0.0898
vn 0.4526 0.8882 -0.0785
vn -0.0072 0.0432 0.9990
vn 0.0002 0.9963 -0.0860
vt 0.625000 0.544917
vt 0.625000 0.548242
vt 0.625000 0.987021
vt 0.625000 0.762979
vt 0.625000 0.250000
vt 0.625000 0.500000
vt 0.625000 0.200747
vt 0.625000 0.204110
vt 0.875000 0.500000
vt 0.625000 0.750000
vt 0.875000 0.750000
vt 0.000000 0.000000
vt 0.676781 0.716070
vt 0.823389 0.716099
vt 0.830437 0.534229
vt 0.823389 0.716099
vt 0.672243 0.533584
vt 0.672243 0.533584
vt 0.676781 0.716070
vt 0.875000 0.750000
vt 0.625000 1.000000
vt 0.750000 0.490000
vt 0.796822 0.485388
vt 0.841844 0.471731
vt 0.883337 0.449553
vt 0.919706 0.419706
vt 0.949553 0.383337
vt 0.971731 0.341844
vt 0.985388 0.296822
vt 0.990000 0.250000
vt 0.985388 0.203178
vt 0.971731 0.158156
vt 0.949553 0.116663
vt 0.919706 0.080294
vt 0.883337 0.050447
vt 0.841844 0.028269
vt 0.796822 0.014612
vt 0.750000 0.010000
vt 0.703178 0.014612
vt 0.658156 0.028269
vt 0.616663 0.050447
vt 0.580294 0.080294
vt 0.550447 0.116663
vt 0.528269 0.158156
vt 0.514612 0.203178
vt 0.510000 0.250000
vt 0.514612 0.296822
vt 0.528269 0.341844
vt 0.550447 0.383337
vt 0.580294 0.419706
vt 0.616663 0.449553
vt 0.658156 0.471731
vt 0.703178 0.485388
vt 0.625000 0.210543
vt 0.625000 0.207537
vt 0.625000 0.223755
vt 0.625000 0.225613
vt 0.625000 0.248349
vt 0.625000 0.542629
vt 0.625000 0.539600
vt 0.625000 0.524310
vt 0.625000 0.526289
vt 0.625000 0.503567
vt 0.625000 0.500895
vt 0.625000 0.501576
vt 0.625000 0.368370
vt 0.625000 0.323468
vt 0.625000 0.285575
vt 0.625000 0.259307
vt 0.625000 0.995548
vt 0.625000 0.995241
vt 0.625000 0.996304
vt 0.625000 0.996543
vt 0.625000 0.997323
vt 0.625000 0.997497
vt 0.625000 0.000000
vt 0.625000 0.000000
vt 0.625000 0.754759
vt 0.625000 0.754452
vt 0.625000 0.753459
vt 0.625000 0.753696
vt 0.625000 0.752512
vt 0.625000 0.752678
vt 0.625000 0.751658
vt 0.625000 0.751755
vt 0.625000 0.750486
vt 0.625000 0.750000
vt 0.625000 0.750221
vt 0.625000 0.750000
vt 0.625000 0.750056
vt 0.625000 0.754759
vt 0.625000 0.753700
vt 0.625000 0.996300
vt 0.625000 0.752695
vt 0.625000 0.997306
vt 0.625000 0.751792
vt 0.625000 0.998208
vt 0.625000 0.751039
vt 0.625000 0.998962
vt 0.873962 0.750000
vt 0.626039 0.750000
vt 0.625471 0.750000
vt 0.874528 0.750000
vt 0.625119 0.750000
vt 0.874881 0.750000
vt 0.625000 0.999888
vt 0.625000 0.999559
vt 0.625000 0.999029
vt 0.625000 0.998324
vt 0.625000 0.997480
vt 0.625000 0.996539
vt 0.625000 0.995548
vt 0.821743 0.714990
vt 0.828582 0.535318
vt 0.811060 0.706196
vt 0.816728 0.540736
vt 0.798590 0.699631
vt 0.802960 0.550581
vt 0.674093 0.534700
vt 0.678433 0.714972
vt 0.685865 0.540203
vt 0.689250 0.706167
vt 0.699497 0.550164
vt 0.701810 0.699606
vt 0.625000 0.744699
vt 0.625000 0.744395
vt 0.625000 0.718187
vt 0.625000 0.571639
vt 0.625000 0.574652
vt 0.625000 0.717950
vt 0.625000 0.544917
vt 0.625000 0.006780
vt 0.625000 0.006414
vt 0.625000 0.186121
vt 0.625000 0.024253
vt 0.625000 0.024700
vt 0.625000 0.182855
vt 0.625000 0.006780
vt 0.625000 0.007380
vt 0.625000 0.006621
vt 0.625000 0.009084
vt 0.625000 0.007205
vt 0.625000 0.013236
vt 0.625000 0.012841
vt 0.625000 0.017239
vt 0.625000 0.016825
vt 0.625000 0.193612
vt 0.625000 0.190304
vt 0.625000 0.194300
vt 0.625000 0.197629
vt 0.625000 0.199998
vt 0.625000 0.201824
vt 0.625000 0.200553
vt 0.625000 0.203517
vt 0.625000 0.744699
vt 0.625000 0.744354
vt 0.625000 0.743209
vt 0.625000 0.739347
vt 0.625000 0.739057
vt 0.625000 0.733997
vt 0.625000 0.733720
vt 0.625000 0.558903
vt 0.625000 0.555704
vt 0.625000 0.550310
vt 0.625000 0.553572
vt 0.625000 0.546018
vt 0.625000 0.548485
s 0
usemtl Material
f 63/1/1 72/2/1 165/2/1 170/1/1
f 3/3/2 6/4/2 12/4/2 11/3/2
f 2/5/3 58/5/3 67/5/3 9/5/3 10/6/3 73/6/3 62/6/3 1/6/3
f 68/7/4 57/8/4 147/8/4 153/7/4
f 13/9/5 14/6/5 10/6/5 9/9/5
f 16/10/5 15/11/5 130/11/5 125/10/5
f 132/12/6 130/12/6 125/12/6 127/12/6 74/12/6 75/12/6 76/12/6 73/12/6 8/12/6 4/12/6 67/12/6 69/12/6 70/12/6 71/12/6
f 8/13/7 4/14/7 15/11/7 16/10/7
f 5/15/8 4/14/8 109/16/8 114/15/8
f 8/13/9 7/17/9 117/18/9 122/19/9
f 12/4/10 6/4/10 24/4/10 23/4/10
f 125/10/11 130/11/11 86/20/11 93/10/11
f 6/4/11 3/3/11 21/3/11 24/4/11
f 21/3/12 22/3/12 182/3/12 181/3/12
f 129/21/13 126/10/13 102/10/13 77/21/13
f 126/10/14 125/10/14 93/10/14 102/10/14
f 22/3/15 23/4/15 183/4/15 182/3/15
f 11/3/13 12/4/13 23/4/13 22/3/13
f 3/3/12 11/3/12 22/3/12 21/3/12
f 25/22/16 26/23/16 27/24/16 28/25/16 29/26/16 30/27/16 31/28/16 32/29/16 33/30/16 34/31/16 35/32/16 36/33/16 37/34/16 38/35/16 39/36/16 40/37/16 41/38/16 42/39/16 43/40/16 44/41/16 45/42/16 46/43/16 47/44/16 48/45/16 49/46/16 50/47/16 51/48/16 52/49/16 53/50/16 54/51/16 55/52/16 56/53/16
f 7/17/17 5/15/17 114/15/17 117/17/17
f 73/12/7 67/12/7 4/12/7 8/12/7
f 131/54/18 132/55/18 71/56/18 59/57/18
f 59/57/19 71/56/19 70/5/19 60/5/19
f 60/5/20 70/5/20 69/58/20 61/5/20
f 61/5/21 69/58/21 67/5/21 58/5/21
f 127/59/22 128/60/22 66/61/22 74/62/22
f 74/62/23 66/61/23 65/63/23 75/6/23
f 75/6/24 65/63/24 64/64/24 76/65/24
f 76/65/25 64/64/25 62/6/25 73/6/25
f 1/6/26 62/6/26 64/64/26 65/63/26 66/61/26 128/60/26 126/10/26 129/21/26 131/66/26 59/67/26 60/68/26 61/69/26 58/5/26 2/5/26
f 78/70/27 85/71/27 87/72/27 84/73/27
f 84/73/28 87/72/28 88/74/28 83/75/28
f 83/75/29 88/74/29 89/21/29 82/21/29
f 82/76/30 89/76/30 90/77/30 81/76/30
f 81/76/31 90/77/31 91/76/31 80/76/31
f 80/76/32 91/76/32 92/76/32 79/76/32
f 79/76/33 92/76/33 86/76/33 77/76/33
f 94/78/34 101/79/34 103/80/34 100/81/34
f 100/81/35 103/80/35 104/82/35 99/83/35
f 99/83/36 104/82/36 105/84/36 98/85/36
f 98/85/37 105/84/37 106/86/37 97/87/37
f 97/87/38 106/86/38 107/88/38 96/89/38
f 96/89/39 107/88/39 108/90/39 95/89/39
f 95/89/40 108/90/40 102/10/40 93/10/40
f 85/71/41 94/91/41 100/92/41 87/93/41
f 87/93/42 100/92/42 99/94/42 88/95/42
f 88/95/43 99/94/43 98/96/43 89/97/43
f 89/97/44 98/96/44 97/98/44 90/99/44
f 90/100/45 97/101/45 96/102/45 91/103/45
f 91/103/46 96/102/46 95/104/46 92/105/46
f 92/105/47 95/104/47 93/10/47 86/20/47
f 77/21/48 102/10/48 108/90/48 79/106/48
f 79/106/49 108/90/49 107/88/49 80/107/49
f 80/107/50 107/88/50 106/86/50 81/108/50
f 81/108/51 106/86/51 105/84/51 82/109/51
f 82/109/52 105/84/52 104/82/52 83/110/52
f 83/110/53 104/82/53 103/80/53 84/111/53
f 84/111/54 103/80/54 101/79/54 78/112/54
f 130/76/55 129/76/55 77/76/55 86/76/55
f 4/14/56 8/13/56 122/13/56 109/14/56
f 114/15/57 109/16/57 111/113/57 116/114/57
f 116/114/58 111/113/58 112/115/58 115/116/58
f 115/116/59 112/115/59 110/117/59 113/118/59
f 122/19/60 117/18/60 119/119/60 124/120/60
f 124/120/61 119/119/61 120/121/61 123/122/61
f 123/122/62 120/121/62 118/123/62 121/124/62
f 109/14/63 122/13/63 124/120/63 111/113/63
f 111/113/64 124/120/64 123/122/64 112/115/64
f 112/115/65 123/122/65 121/124/65 110/117/65
f 117/17/66 114/15/66 116/114/66 119/119/66
f 119/119/67 116/114/67 115/116/67 120/121/67
f 120/121/68 115/116/68 113/118/68 118/123/68
f 113/118/69 110/117/69 121/124/69 118/123/69
f 20/125/70 19/126/70 125/10/70 126/10/70
f 72/2/71 63/1/71 128/60/71 127/59/71
f 63/1/72 20/125/72 126/10/72 128/60/72
f 19/126/73 72/2/73 127/59/73 125/10/73
f 72/2/74 19/126/74 158/126/74 165/2/74
f 162/127/75 169/128/75 166/129/75 157/130/75
f 20/125/76 63/1/76 170/131/76 161/125/76
f 134/76/5 133/76/5 129/76/5 130/76/5
f 135/54/5 136/55/5 132/55/5 131/54/5
f 133/76/5 135/54/5 131/54/5 129/76/5
f 136/55/5 134/76/5 130/76/5 132/55/5
f 18/132/77 17/133/77 133/76/77 134/76/77
f 57/8/78 68/7/78 136/55/78 135/54/78
f 17/133/79 57/8/79 135/54/79 133/76/79
f 68/7/80 18/132/80 134/76/80 136/55/80
f 57/8/81 17/133/81 138/133/81 147/8/81
f 18/132/82 68/7/82 153/7/82 142/132/82
f 148/134/83 137/135/83 143/136/83 152/137/83
f 138/133/84 142/138/84 144/139/84 141/140/84
f 141/140/85 144/139/85 145/141/85 140/142/85
f 140/142/86 145/141/86 146/143/86 139/144/86
f 139/144/87 146/143/87 177/145/87 178/146/87
f 179/147/88 180/148/88 154/149/88 151/150/88
f 151/150/89 154/149/89 155/151/89 150/152/89
f 150/152/90 155/151/90 156/153/90 149/154/90
f 149/154/91 156/153/91 153/7/91 147/8/91
f 178/146/92 179/147/92 151/150/92 139/144/92
f 139/144/93 151/150/93 150/152/93 140/142/93
f 140/142/94 150/152/94 149/154/94 141/140/94
f 141/140/95 149/154/95 147/8/95 138/133/95
f 142/132/96 153/7/96 156/153/96 144/139/96
f 144/139/97 156/153/97 155/151/97 145/141/97
f 145/141/98 155/151/98 154/149/98 146/143/98
f 146/143/99 154/149/99 180/148/99 177/145/99
f 17/133/100 18/132/100 142/138/100 138/133/100
f 158/126/101 161/155/101 163/156/101 160/157/101
f 160/157/102 163/156/102 164/158/102 159/159/102
f 159/159/103 164/158/103 173/160/103 174/161/103
f 175/162/104 176/163/104 171/164/104 168/165/104
f 168/165/105 171/164/105 172/166/105 167/167/105
f 167/167/106 172/166/106 170/1/106 165/2/106
f 176/163/107 173/160/107 164/158/107 171/164/107
f 171/164/108 164/158/108 163/156/108 172/166/108
f 172/166/109 163/156/109 161/125/109 170/131/109
f 165/2/110 158/126/110 160/157/110 167/167/110
f 167/167/111 160/157/111 159/159/111 168/165/111
f 168/165/112 159/159/112 174/161/112 175/162/112
f 19/126/113 20/125/113 161/155/113 158/126/113
f 24/4/114 21/3/114 181/3/114 184/4/114
f 23/4/10 24/4/10 184/4/10 183/4/10
