# Blender 3.6.1
# www.blender.org
mtllib untitled.mtl
o Sphere
v 0.000000 0.707107 -0.707107
v 0.224936 0.923880 -0.309597
v 0.415627 0.707107 -0.572061
v 0.543043 0.382683 -0.747434
v 0.587785 0.000000 -0.809017
v 0.543043 -0.382683 -0.747434
v 0.415627 -0.707107 -0.572061
v 0.224936 -0.923880 -0.309597
v 0.363954 0.923880 -0.118256
v 0.672498 0.707107 -0.218508
v 0.878662 0.382683 -0.285494
v 0.951057 0.000000 -0.309017
v 0.878662 -0.382683 -0.285494
v 0.672498 -0.707107 -0.218508
v 0.363954 -0.923880 -0.118256
v 0.363954 0.923880 0.118256
v 0.672498 0.707107 0.218508
v 0.878662 0.382683 0.285494
v 0.951057 0.000000 0.309017
v 0.878662 -0.382683 0.285494
v 0.672498 -0.707107 0.218508
v 0.363954 -0.923880 0.118256
v 0.224936 0.923880 0.309597
v 0.415627 0.707107 0.572061
v 0.543043 0.382683 0.747434
v 0.587785 0.000000 0.809017
v 0.543043 -0.382683 0.747434
v 0.415627 -0.707107 0.572061
v 0.224936 -0.923880 0.309597
v 0.000000 0.923880 0.382684
v 0.000000 0.707107 0.707107
v 0.000000 0.382683 0.923879
v 0.000000 0.000000 1.000000
v 0.000000 -0.382683 0.923879
v 0.000000 -0.707107 0.707107
v 0.000000 -0.923880 0.382684
v -0.224936 0.923880 0.309597
v -0.415627 0.707107 0.572061
v -0.543043 0.382683 0.747434
v -0.587785 0.000000 0.809017
v -0.543043 -0.382683 0.747434
v -0.415627 -0.707107 0.572061
v -0.224936 -0.923880 0.309597
v -0.363954 0.923880 0.118256
v -0.672498 0.707107 0.218508
v -0.878662 0.382683 0.285495
v -0.951057 0.000000 0.309017
v -0.878662 -0.382683 0.285495
v -0.672498 -0.707107 0.218508
v -0.363954 -0.923880 0.118256
v 0.000000 -1.000000 0.000000
v -0.363954 0.923880 -0.118256
v -0.672498 0.707107 -0.218508
v -0.878662 0.382683 -0.285494
v -0.951057 0.000000 -0.309017
v -0.878662 -0.382683 -0.285494
v -0.672498 -0.707107 -0.218508
v -0.363954 -0.923880 -0.118256
v 0.000000 1.000000 0.000000
v -0.224936 0.923880 -0.309597
v -0.415627 0.707107 -0.572061
v -0.543043 0.382683 -0.747434
v -0.587785 0.000000 -0.809017
v -0.543043 -0.382683 -0.747434
v -0.415627 -0.707107 -0.572061
v -0.224936 -0.923880 -0.309597
v -0.000000 0.923880 -0.382684
v -0.000000 0.382683 -0.923880
v -0.000000 0.000000 -1.000000
v -0.000000 -0.382683 -0.923880
v 0.000000 -0.707107 -0.707107
v -0.000000 -0.923880 -0.382684
vn 0.1776 0.8182 -0.5467
vn 0.1776 -0.8182 -0.5467
vn 0.3036 -0.1859 -0.9345
vn 0.2608 0.5363 -0.8027
vn 0.0633 0.9788 -0.1947
vn 0.0633 -0.9788 -0.1947
vn 0.2608 -0.5363 -0.8027
vn 0.3036 0.1859 -0.9345
vn 0.7949 -0.1859 -0.5775
vn 0.6828 0.5363 -0.4961
vn 0.1656 0.9788 -0.1203
vn 0.1656 -0.9788 -0.1203
vn 0.6828 -0.5363 -0.4961
vn 0.7949 0.1859 -0.5775
vn 0.4651 0.8182 -0.3379
vn 0.4651 -0.8182 -0.3379
vn 0.2047 -0.9788 -0.0000
vn 0.8440 -0.5363 -0.0000
vn 0.9826 0.1859 -0.0000
vn 0.5749 0.8182 -0.0000
vn 0.5749 -0.8182 -0.0000
vn 0.9826 -0.1859 -0.0000
vn 0.8440 0.5363 -0.0000
vn 0.2047 0.9788 -0.0000
vn 0.7949 0.1859 0.5775
vn 0.4651 0.8182 0.3379
vn 0.4651 -0.8182 0.3379
vn 0.7949 -0.1859 0.5775
vn 0.6828 0.5363 0.4961
vn 0.1656 0.9788 0.1203
vn 0.1656 -0.9788 0.1203
vn 0.6828 -0.5363 0.4961
vn 0.1776 -0.8182 0.5467
vn 0.3036 -0.1859 0.9345
vn 0.2608 0.5363 0.8027
vn 0.0633 0.9788 0.1947
vn 0.0633 -0.9788 0.1947
vn 0.2608 -0.5363 0.8027
vn 0.3036 0.1859 0.9345
vn 0.1776 0.8182 0.5467
vn -0.2608 0.5363 0.8027
vn -0.0633 0.9788 0.1947
vn -0.0633 -0.9788 0.1947
vn -0.2608 -0.5363 0.8027
vn -0.3036 0.1859 0.9345
vn -0.1776 0.8182 0.5467
vn -0.1776 -0.8182 0.5467
vn -0.3036 -0.1859 0.9345
vn -0.1656 -0.9788 0.1203
vn -0.6828 -0.5363 0.4961
vn -0.7949 0.1859 0.5775
vn -0.4651 0.8182 0.3379
vn -0.4651 -0.8182 0.3379
vn -0.7949 -0.1859 0.5775
vn -0.6828 0.5363 0.4961
vn -0.1656 0.9788 0.1203
vn -0.5749 0.8182 -0.0000
vn -0.5749 -0.8182 -0.0000
vn -0.9826 -0.1859 -0.0000
vn -0.8440 0.5363 -0.0000
vn -0.2047 0.9788 -0.0000
vn -0.2047 -0.9788 -0.0000
vn -0.8440 -0.5363 -0.0000
vn -0.9826 0.1859 -0.0000
vn -0.4651 -0.8182 -0.3379
vn -0.7949 -0.1859 -0.5775
vn -0.6828 0.5363 -0.4961
vn -0.1656 0.9788 -0.1203
vn -0.1656 -0.9788 -0.1203
vn -0.6828 -0.5363 -0.4961
vn -0.7949 0.1859 -0.5775
vn -0.4651 0.8182 -0.3379
vn -0.0633 0.9788 -0.1947
vn -0.0633 -0.9788 -0.1947
vn -0.2608 -0.5363 -0.8027
vn -0.3036 0.1859 -0.9345
vn -0.1776 0.8182 -0.5467
vn -0.1776 -0.8182 -0.5467
vn -0.3036 -0.1859 -0.9345
vn -0.2608 0.5363 -0.8027
vt 0.700000 0.750000
vt 0.700000 0.875000
vt 0.600000 0.875000
vt 0.600000 0.750000
vt 0.700000 0.125000
vt 0.700000 0.250000
vt 0.600000 0.250000
vt 0.600000 0.125000
vt 0.700000 0.375000
vt 0.700000 0.500000
vt 0.600000 0.500000
vt 0.600000 0.375000
vt 0.700000 0.625000
vt 0.600000 0.625000
vt 0.650000 1.000000
vt 0.650000 0.000000
vt 0.500000 0.500000
vt 0.500000 0.375000
vt 0.500000 0.750000
vt 0.500000 0.625000
vt 0.550000 1.000000
vt 0.500000 0.875000
vt 0.550000 0.000000
vt 0.500000 0.125000
vt 0.500000 0.250000
vt 0.450000 0.000000
vt 0.400000 0.125000
vt 0.400000 0.375000
vt 0.400000 0.250000
vt 0.400000 0.625000
vt 0.400000 0.500000
vt 0.400000 0.875000
vt 0.400000 0.750000
vt 0.450000 1.000000
vt 0.300000 0.625000
vt 0.300000 0.500000
vt 0.300000 0.875000
vt 0.300000 0.750000
vt 0.300000 0.250000
vt 0.300000 0.125000
vt 0.300000 0.375000
vt 0.350000 1.000000
vt 0.350000 0.000000
vt 0.200000 0.250000
vt 0.200000 0.125000
vt 0.200000 0.500000
vt 0.200000 0.375000
vt 0.200000 0.750000
vt 0.200000 0.625000
vt 0.250000 1.000000
vt 0.200000 0.875000
vt 0.250000 0.000000
vt 0.100000 0.750000
vt 0.100000 0.625000
vt 0.150000 1.000000
vt 0.100000 0.875000
vt 0.150000 0.000000
vt 0.100000 0.125000
vt 0.100000 0.375000
vt 0.100000 0.250000
vt 0.100000 0.500000
vt 0.050000 0.000000
vt 0.000000 0.125000
vt 0.000000 0.375000
vt 0.000000 0.250000
vt 0.000000 0.625000
vt 0.000000 0.500000
vt 0.000000 0.875000
vt 0.000000 0.750000
vt 0.050000 1.000000
vt 1.000000 0.750000
vt 1.000000 0.875000
vt 0.900000 0.875000
vt 0.900000 0.750000
vt 1.000000 0.125000
vt 1.000000 0.250000
vt 0.900000 0.250000
vt 0.900000 0.125000
vt 1.000000 0.375000
vt 1.000000 0.500000
vt 0.900000 0.500000
vt 0.900000 0.375000
vt 1.000000 0.625000
vt 0.900000 0.625000
vt 0.950000 1.000000
vt 0.950000 0.000000
vt 0.800000 0.250000
vt 0.800000 0.125000
vt 0.800000 0.500000
vt 0.800000 0.375000
vt 0.800000 0.750000
vt 0.800000 0.625000
vt 0.850000 1.000000
vt 0.800000 0.875000
vt 0.850000 0.000000
vt 0.750000 1.000000
vt 0.750000 0.000000
s 0
usemtl Material.001
f 1/1/1 67/2/1 2/3/1 3/4/1
f 72/5/2 71/6/2 7/7/2 8/8/2
f 70/9/3 69/10/3 5/11/3 6/12/3
f 68/13/4 1/1/4 3/4/4 4/14/4
f 67/2/5 59/15/5 2/3/5
f 51/16/6 72/5/6 8/8/6
f 71/6/7 70/9/7 6/12/7 7/7/7
f 69/10/8 68/13/8 4/14/8 5/11/8
f 6/12/9 5/11/9 12/17/9 13/18/9
f 4/14/10 3/4/10 10/19/10 11/20/10
f 2/3/11 59/21/11 9/22/11
f 51/23/12 8/8/12 15/24/12
f 7/7/13 6/12/13 13/18/13 14/25/13
f 5/11/14 4/14/14 11/20/14 12/17/14
f 3/4/15 2/3/15 9/22/15 10/19/15
f 8/8/16 7/7/16 14/25/16 15/24/16
f 51/26/17 15/24/17 22/27/17
f 14/25/18 13/18/18 20/28/18 21/29/18
f 12/17/19 11/20/19 18/30/19 19/31/19
f 10/19/20 9/22/20 16/32/20 17/33/20
f 15/24/21 14/25/21 21/29/21 22/27/21
f 13/18/22 12/17/22 19/31/22 20/28/22
f 11/20/23 10/19/23 17/33/23 18/30/23
f 9/22/24 59/34/24 16/32/24
f 19/31/25 18/30/25 25/35/25 26/36/25
f 17/33/26 16/32/26 23/37/26 24/38/26
f 22/27/27 21/29/27 28/39/27 29/40/27
f 20/28/28 19/31/28 26/36/28 27/41/28
f 18/30/29 17/33/29 24/38/29 25/35/29
f 16/32/30 59/42/30 23/37/30
f 51/43/31 22/27/31 29/40/31
f 21/29/32 20/28/32 27/41/32 28/39/32
f 29/40/33 28/39/33 35/44/33 36/45/33
f 27/41/34 26/36/34 33/46/34 34/47/34
f 25/35/35 24/38/35 31/48/35 32/49/35
f 23/37/36 59/50/36 30/51/36
f 51/52/37 29/40/37 36/45/37
f 28/39/38 27/41/38 34/47/38 35/44/38
f 26/36/39 25/35/39 32/49/39 33/46/39
f 24/38/40 23/37/40 30/51/40 31/48/40
f 32/49/41 31/48/41 38/53/41 39/54/41
f 30/51/42 59/55/42 37/56/42
f 51/57/43 36/45/43 43/58/43
f 35/44/44 34/47/44 41/59/44 42/60/44
f 33/46/45 32/49/45 39/54/45 40/61/45
f 31/48/46 30/51/46 37/56/46 38/53/46
f 36/45/47 35/44/47 42/60/47 43/58/47
f 34/47/48 33/46/48 40/61/48 41/59/48
f 51/62/49 43/58/49 50/63/49
f 42/60/50 41/59/50 48/64/50 49/65/50
f 40/61/51 39/54/51 46/66/51 47/67/51
f 38/53/52 37/56/52 44/68/52 45/69/52
f 43/58/53 42/60/53 49/65/53 50/63/53
f 41/59/54 40/61/54 47/67/54 48/64/54
f 39/54/55 38/53/55 45/69/55 46/66/55
f 37/56/56 59/70/56 44/68/56
f 45/71/57 44/72/57 52/73/57 53/74/57
f 50/75/58 49/76/58 57/77/58 58/78/58
f 48/79/59 47/80/59 55/81/59 56/82/59
f 46/83/60 45/71/60 53/74/60 54/84/60
f 44/72/61 59/85/61 52/73/61
f 51/86/62 50/75/62 58/78/62
f 49/76/63 48/79/63 56/82/63 57/77/63
f 47/80/64 46/83/64 54/84/64 55/81/64
f 58/78/65 57/77/65 65/87/65 66/88/65
f 56/82/66 55/81/66 63/89/66 64/90/66
f 54/84/67 53/74/67 61/91/67 62/92/67
f 52/73/68 59/93/68 60/94/68
f 51/95/69 58/78/69 66/88/69
f 57/77/70 56/82/70 64/90/70 65/87/70
f 55/81/71 54/84/71 62/92/71 63/89/71
f 53/74/72 52/73/72 60/94/72 61/91/72
f 60/94/73 59/96/73 67/2/73
f 51/97/74 66/88/74 72/5/74
f 65/87/75 64/90/75 70/9/75 71/6/75
f 63/89/76 62/92/76 68/13/76 69/10/76
f 61/91/77 60/94/77 67/2/77 1/1/77
f 66/88/78 65/87/78 71/6/78 72/5/78
f 64/90/79 63/89/79 69/10/79 70/9/79
f 62/92/80 61/91/80 1/1/80 68/13/80
