# Blender 3.6.2
# www.blender.org
mtllib LaserGunLv1Highlights.mtl
o Cube.003
v -1.201546 7.319687 1.128276
v -1.201546 5.219897 1.695431
v -1.201546 5.219897 -1.361210
v -7.275350 4.530838 1.128276
v -7.275350 4.530838 -0.874104
v -7.275350 4.791471 -0.874104
v -7.275350 4.791471 1.128276
v -7.275350 5.219897 1.695431
v -7.275350 5.219897 -1.361210
v -7.275350 7.319687 1.128276
v -7.275350 7.319687 -0.874104
v -7.275350 7.008255 -0.874104
v -7.275350 6.614322 -1.361210
v -7.275350 6.614322 1.695431
v -7.275350 7.008255 1.128276
v -1.201546 7.319687 1.128276
v -1.201546 6.617078 1.695431
v 3.663171 7.965972 2.703630
v -1.201546 7.302071 1.254480
v -1.201546 7.250107 1.374356
v -1.201546 7.166399 1.481892
v -1.201546 7.055148 1.571696
v -1.201546 6.921929 1.639265
v -1.201546 6.773423 1.681212
v -1.201546 6.617078 -1.361210
v -1.201546 7.319687 -0.874104
v 3.660733 7.966024 -2.339120
v -1.201546 6.773423 -1.348997
v -1.201546 6.921929 -1.312971
v -1.201546 7.055148 -1.254939
v -1.201546 7.166399 -1.177809
v -1.201546 7.250107 -1.085451
v -1.201546 7.302071 -0.982495
v -7.275350 6.617078 1.695431
v -7.275350 7.319687 1.128276
v -7.275350 6.773423 1.681212
v -7.275350 6.921929 1.639265
v -7.275350 7.055148 1.571696
v -7.275350 7.166399 1.481892
v -7.275350 7.250107 1.374356
v -7.275350 7.302071 1.254480
v -7.275350 7.319687 -0.874104
v -7.275350 6.617078 -1.361210
v -7.275350 7.302071 -0.982495
v -7.275350 7.250107 -1.085451
v -7.275350 7.166399 -1.177809
v -7.275350 7.055148 -1.254939
v -7.275350 6.921929 -1.312971
v -7.275350 6.773423 -1.348997
v -1.201546 5.219897 1.695431
v -1.201546 4.530838 1.128276
v 3.670775 3.903522 2.704943
v -1.201546 5.066567 1.681212
v -1.201546 4.920925 1.639265
v -1.201546 4.790276 1.571696
v -1.201546 4.681169 1.481892
v -1.201546 4.599076 1.374356
v -1.201546 4.548114 1.254480
v -1.201546 4.530838 -0.874104
v -1.201546 5.219897 -1.361210
v 3.661574 3.889737 -2.325701
v -1.201546 4.548114 -0.982495
v -1.201546 4.599076 -1.085451
v -1.201546 4.681169 -1.177809
v -1.201546 4.790276 -1.254939
v -1.201546 4.920925 -1.312971
v -1.201546 5.066567 -1.348997
v -7.275350 4.530838 1.128276
v -7.275350 5.219897 1.695431
v -7.275350 4.548114 1.254480
v -7.275350 4.599076 1.374356
v -7.275350 4.681169 1.481892
v -7.275350 4.790276 1.571696
v -7.275350 4.920925 1.639265
v -7.275350 5.066567 1.681212
v -7.275350 5.219897 -1.361210
v -7.275350 4.530838 -0.874104
v -7.275350 5.066567 -1.348997
v -7.275350 4.920925 -1.312971
v -7.275350 4.790276 -1.254939
v -7.275350 4.681169 -1.177809
v -7.275350 4.599076 -1.085451
v -7.275350 4.548114 -0.982495
v 3.665561 3.906421 2.679058
v 3.666875 3.906459 -2.331775
v 3.669429 7.950253 1.749264
v 3.667430 7.949996 2.678705
v 3.652203 4.906461 2.675630
v 3.653014 4.906408 -2.328945
v -7.245678 4.791471 -0.874104
v -7.245678 5.908957 -0.874104
v -7.245678 4.791471 1.128276
v -7.245678 5.908957 1.128276
v -7.245678 7.008255 -0.874104
v -7.245678 7.008255 1.128276
v -4.208776 6.875617 1.128276
v -7.245678 6.875617 1.128276
v -7.245678 6.875617 -0.874104
v -4.208776 6.875617 -0.940430
v -4.208776 7.008255 0.994301
v -7.245678 7.008255 0.994301
v -7.245678 5.908957 0.994301
v -4.208776 5.908957 0.994301
v -7.245678 4.791471 0.995906
v -7.245678 5.908957 0.995906
v -4.208776 4.791471 0.995906
v -4.208776 5.908957 0.995906
v -7.245678 4.923576 1.128276
v -7.245678 4.923576 -0.874104
v -4.208776 4.923576 1.128276
v -4.208776 4.923576 -0.874104
v -4.206685 5.910852 -0.812708
v -7.243587 5.910852 -0.746382
v -7.243587 4.793367 -0.746382
v -7.243587 7.010150 -0.746382
v -4.206685 7.010150 -0.812708
v -4.206685 4.793367 -0.746382
vn -0.1230 0.9923 -0.0171
vn -0.1968 -0.0048 -0.9804
vn -1.0000 -0.0000 -0.0000
vn -0.1915 0.0251 0.9812
vn -0.1737 0.9753 0.1361
vn -0.2368 0.8914 0.3864
vn -0.2732 0.7591 0.5909
vn -0.2862 0.6018 0.7456
vn -0.2805 0.4342 0.8560
vn -0.2597 0.2625 0.9293
vn -0.2255 0.0882 0.9702
vn -0.2168 0.0760 -0.9732
vn -0.2477 0.2284 -0.9415
vn -0.2689 0.3847 -0.8830
vn -0.2785 0.5472 -0.7893
vn -0.2716 0.7131 -0.6463
vn -0.2404 0.8666 -0.4374
vn -0.1767 0.9715 -0.1579
vn -0.0000 0.9870 -0.1604
vn -0.0000 0.8927 -0.4506
vn -0.0000 0.7410 -0.6716
vn -0.0000 0.5698 -0.8218
vn -0.0000 0.3994 -0.9168
vn -0.0000 0.2358 -0.9718
vn -0.0000 0.0779 -0.9970
vn -0.0000 0.0906 0.9959
vn -0.0000 0.2718 0.9623
vn -0.0000 0.4523 0.8918
vn -0.0000 0.6281 0.7781
vn -0.0000 0.7891 0.6143
vn -0.0000 0.9175 0.3977
vn -0.0000 0.9904 0.1382
vn -0.2253 -0.0900 0.9701
vn -0.2588 -0.2673 0.9282
vn -0.2787 -0.4412 0.8530
vn -0.2832 -0.6095 0.7405
vn -0.2689 -0.7656 0.5844
vn -0.2317 -0.8952 0.3806
vn -0.1690 -0.9765 0.1337
vn -0.1744 -0.9724 -0.1550
vn -0.2369 -0.8707 -0.4310
vn -0.2682 -0.7200 -0.6400
vn -0.2756 -0.5549 -0.7850
vn -0.2664 -0.3913 -0.8809
vn -0.2453 -0.2328 -0.9411
vn -0.2143 -0.0776 -0.9737
vn -0.0000 -0.0923 0.9957
vn -0.0000 -0.2768 0.9609
vn -0.0000 -0.4594 0.8882
vn -0.0000 -0.6355 0.7721
vn -0.0000 -0.7949 0.6068
vn -0.0000 -0.9203 0.3912
vn -0.0000 -0.9908 0.1356
vn -0.0000 -0.0794 -0.9968
vn -0.0000 -0.2401 -0.9707
vn -0.0000 -0.4059 -0.9139
vn -0.0000 -0.5772 -0.8166
vn -0.0000 -0.7474 -0.6643
vn -0.0000 -0.8962 -0.4436
vn -0.0000 -0.9875 -0.1574
vn -0.9999 -0.0000 0.0164
vn -0.0000 -1.0000 -0.0000
vn -0.0000 -0.0000 -1.0000
vn -0.0000 1.0000 -0.0000
vn 0.0218 -0.0000 0.9998
vn 0.0109 0.0297 0.9995
vt 0.645042 0.735622
vt 0.860622 0.735622
vt 0.639668 0.735622
vt 0.645129 0.735622
vt 0.645151 0.514378
vt 0.639378 0.514378
vt 0.860622 0.514378
vt 0.645768 0.514378
vt 0.639380 0.735622
vt 0.645206 0.735622
vt 0.645804 0.735622
vt 0.860622 0.514378
vt 0.860622 0.514378
vt 0.860622 0.514378
vt 0.860622 0.514378
vt 0.860622 0.735622
vt 0.639668 0.735622
vt 0.860622 0.735622
vt 0.639650 0.514378
vt 0.639380 0.735622
vt 0.860622 0.735622
vt 0.860622 0.514378
s 0
usemtl Material
f 86/1/1 1/2/1 16/2/1 18/3/1 87/4/1
f 85/5/2 61/6/2 60/7/2 3/7/2 89/8/2
f 7/2/3 4/2/3 68/2/3 70/2/3 71/2/3 72/2/3 73/2/3 74/2/3 75/2/3 69/2/3 8/2/3
f 50/2/4 52/9/4 84/10/4 88/11/4 2/2/4
f 5/7/3 6/7/3 9/7/3 76/7/3 78/12/3 79/12/3 80/12/3 81/12/3 82/13/3 83/12/3 77/7/3
f 13/7/3 12/7/3 11/7/3 42/7/3 44/12/3 45/12/3 46/14/3 47/15/3 48/12/3 49/12/3 43/7/3
f 15/2/3 14/2/3 34/2/3 36/2/3 37/2/3 38/2/3 39/16/3 40/2/3 41/2/3 35/2/3 10/2/3
f 16/2/5 19/2/5 18/17/5
f 19/2/6 20/2/6 18/17/6
f 20/2/7 21/2/7 18/17/7
f 21/2/8 22/2/8 18/17/8
f 22/2/9 23/18/9 18/17/9
f 23/18/10 24/2/10 18/17/10
f 24/2/11 17/2/11 18/17/11
f 25/7/12 28/7/12 27/19/12
f 28/7/13 29/7/13 27/19/13
f 29/7/14 30/12/14 27/19/14
f 30/12/15 31/7/15 27/19/15
f 31/7/16 32/7/16 27/19/16
f 32/7/17 33/7/17 27/19/17
f 33/7/18 26/7/18 27/19/18
f 42/7/19 26/7/19 33/7/19 44/12/19
f 44/12/20 33/7/20 32/7/20 45/12/20
f 45/12/21 32/7/21 31/7/21 46/14/21
f 46/14/22 31/7/22 30/12/22 47/15/22
f 47/15/23 30/12/23 29/7/23 48/12/23
f 48/12/24 29/7/24 28/7/24 49/12/24
f 49/12/25 28/7/25 25/7/25 43/7/25
f 34/2/26 17/2/26 24/16/26 36/2/26
f 36/2/27 24/16/27 23/2/27 37/2/27
f 37/2/28 23/2/28 22/2/28 38/2/28
f 38/2/29 22/2/29 21/2/29 39/16/29
f 39/16/30 21/2/30 20/2/30 40/2/30
f 40/2/31 20/2/31 19/2/31 41/2/31
f 41/2/32 19/2/32 16/2/32 35/2/32
f 50/2/33 53/2/33 52/20/33
f 53/2/34 54/2/34 52/20/34
f 54/2/35 55/2/35 52/20/35
f 55/2/36 56/2/36 52/20/36
f 56/2/37 57/2/37 52/20/37
f 57/2/38 58/21/38 52/20/38
f 58/21/39 51/2/39 52/20/39
f 59/7/40 62/7/40 61/6/40
f 62/7/41 63/7/41 61/6/41
f 63/7/42 64/22/42 61/6/42
f 64/22/43 65/7/43 61/6/43
f 65/7/44 66/7/44 61/6/44
f 66/7/45 67/7/45 61/6/45
f 67/7/46 60/7/46 61/6/46
f 50/2/47 69/2/47 75/2/47 53/2/47
f 53/2/48 75/2/48 74/2/48 54/2/48
f 54/2/49 74/2/49 73/2/49 55/2/49
f 55/2/50 73/2/50 72/2/50 56/2/50
f 56/2/51 72/2/51 71/2/51 57/2/51
f 57/2/52 71/2/52 70/2/52 58/2/52
f 58/2/53 70/2/53 68/2/53 51/2/53
f 76/7/54 60/7/54 67/7/54 78/12/54
f 78/12/55 67/7/55 66/7/55 79/12/55
f 79/12/56 66/7/56 65/7/56 80/12/56
f 80/12/57 65/7/57 64/22/57 81/12/57
f 81/12/58 64/22/58 63/7/58 82/13/58
f 82/13/59 63/7/59 62/7/59 83/12/59
f 83/12/60 62/7/60 59/7/60 77/7/60
f 95/2/3 94/7/3 98/7/3 97/2/3
f 91/7/61 90/7/61 114/7/61 113/7/61
f 99/15/62 96/2/62 97/2/62 98/7/62
f 100/2/63 103/2/63 102/2/63 101/2/63
f 93/2/3 95/2/3 101/2/3 102/2/3
f 107/2/63 106/2/63 104/2/63 105/2/63
f 92/2/3 93/2/3 105/2/3 104/2/3
f 110/2/64 111/7/64 109/7/64 108/2/64
f 90/7/3 92/2/3 108/2/3 109/7/3
f 112/7/65 116/15/65 115/7/65 113/7/65
f 117/7/66 112/7/66 113/7/66 114/7/66
f 94/7/61 91/7/61 113/7/61 115/7/61
